<svg id="visual" viewBox="0 0 960 300" width="960" height="300" xmlns="http://www.w3.org/2000/svg" xmlns:xlink="http://www.w3.org/1999/xlink" version="1.1"><rect x="0" y="0" width="960" height="300" fill="#1f1f1f"></rect><path d="M0 156L14.5 163.3C29 170.7 58 185.3 87.2 190.2C116.3 195 145.7 190 174.8 181.8C204 173.7 233 162.3 262 165C291 167.7 320 184.3 349 192.3C378 200.3 407 199.7 436.2 195.3C465.3 191 494.7 183 523.8 180.3C553 177.7 582 180.3 611 173.5C640 166.7 669 150.3 698 145C727 139.7 756 145.3 785.2 154.3C814.3 163.3 843.7 175.7 872.8 181.8C902 188 931 188 945.5 188L960 188L960 301L945.5 301C931 301 902 301 872.8 301C843.7 301 814.3 301 785.2 301C756 301 727 301 698 301C669 301 640 301 611 301C582 301 553 301 523.8 301C494.7 301 465.3 301 436.2 301C407 301 378 301 349 301C320 301 291 301 262 301C233 301 204 301 174.8 301C145.7 301 116.3 301 87.2 301C58 301 29 301 14.5 301L0 301Z" fill="#135100"></path><path d="M0 203L14.5 198.7C29 194.3 58 185.7 87.2 179.5C116.3 173.3 145.7 169.7 174.8 178.7C204 187.7 233 209.3 262 209.5C291 209.7 320 188.3 349 184.8C378 181.3 407 195.7 436.2 201.5C465.3 207.3 494.7 204.7 523.8 198.8C553 193 582 184 611 188.2C640 192.3 669 209.7 698 207.7C727 205.7 756 184.3 785.2 182C814.3 179.7 843.7 196.3 872.8 203.7C902 211 931 209 945.5 208L960 207L960 301L945.5 301C931 301 902 301 872.8 301C843.7 301 814.3 301 785.2 301C756 301 727 301 698 301C669 301 640 301 611 301C582 301 553 301 523.8 301C494.7 301 465.3 301 436.2 301C407 301 378 301 349 301C320 301 291 301 262 301C233 301 204 301 174.8 301C145.7 301 116.3 301 87.2 301C58 301 29 301 14.5 301L0 301Z" fill="#1c7700"></path><path d="M0 245L14.5 241.7C29 238.3 58 231.7 87.2 225C116.3 218.3 145.7 211.7 174.8 205.7C204 199.7 233 194.3 262 197.3C291 200.3 320 211.7 349 217.8C378 224 407 225 436.2 223.2C465.3 221.3 494.7 216.7 523.8 211.3C553 206 582 200 611 204.3C640 208.7 669 223.3 698 229.5C727 235.7 756 233.3 785.2 230.7C814.3 228 843.7 225 872.8 220.5C902 216 931 210 945.5 207L960 204L960 301L945.5 301C931 301 902 301 872.8 301C843.7 301 814.3 301 785.2 301C756 301 727 301 698 301C669 301 640 301 611 301C582 301 553 301 523.8 301C494.7 301 465.3 301 436.2 301C407 301 378 301 349 301C320 301 291 301 262 301C233 301 204 301 174.8 301C145.7 301 116.3 301 87.2 301C58 301 29 301 14.5 301L0 301Z" fill="#23a000"></path><path d="M0 238L14.5 241C29 244 58 250 87.2 248.8C116.3 247.7 145.7 239.3 174.8 240.5C204 241.7 233 252.3 262 252.7C291 253 320 243 349 236C378 229 407 225 436.2 222.5C465.3 220 494.7 219 523.8 226C553 233 582 248 611 251.7C640 255.3 669 247.7 698 242.5C727 237.3 756 234.7 785.2 237.2C814.3 239.7 843.7 247.3 872.8 251.2C902 255 931 255 945.5 255L960 255L960 301L945.5 301C931 301 902 301 872.8 301C843.7 301 814.3 301 785.2 301C756 301 727 301 698 301C669 301 640 301 611 301C582 301 553 301 523.8 301C494.7 301 465.3 301 436.2 301C407 301 378 301 349 301C320 301 291 301 262 301C233 301 204 301 174.8 301C145.7 301 116.3 301 87.2 301C58 301 29 301 14.5 301L0 301Z" fill="#28cb00"></path><path d="M0 272L14.5 269C29 266 58 260 87.2 259.3C116.3 258.7 145.7 263.3 174.8 266.8C204 270.3 233 272.7 262 270.8C291 269 320 263 349 264C378 265 407 273 436.2 274.3C465.3 275.7 494.7 270.3 523.8 266.5C553 262.7 582 260.3 611 259.8C640 259.3 669 260.7 698 262.5C727 264.3 756 266.7 785.2 269.2C814.3 271.7 843.7 274.3 872.8 272.8C902 271.3 931 265.7 945.5 262.8L960 260L960 301L945.5 301C931 301 902 301 872.8 301C843.7 301 814.3 301 785.2 301C756 301 727 301 698 301C669 301 640 301 611 301C582 301 553 301 523.8 301C494.7 301 465.3 301 436.2 301C407 301 378 301 349 301C320 301 291 301 262 301C233 301 204 301 174.8 301C145.7 301 116.3 301 87.2 301C58 301 29 301 14.5 301L0 301Z" fill="#2af800"></path></svg>